<svg width="268" height="268" viewBox="0 0 268 268" fill="none" xmlns="http://www.w3.org/2000/svg">
<mask id="mask0_1_2" style="mask-type:luminance" maskUnits="userSpaceOnUse" x="52" y="47" width="195" height="219">
<path d="M52.8853 47.168H246.56V265.641H52.8853V47.168Z" fill="white"/>
</mask>
<g mask="url(#mask0_1_2)">
<path d="M246.337 208.233C233.598 213.613 220.793 218.797 207.976 223.945L188.722 231.574C185.509 232.831 182.329 234.193 179.03 235.187C175.738 236.206 172.433 237.177 169.164 238.269L90.531 263.813L85.2324 265.532L84.4005 260.021L54.1304 59.7835L53.3627 54.7083L58.4826 54.3621L140.142 48.8458L150.348 48.1395C153.748 47.8436 157.14 47.4835 160.563 47.5728L181.073 47.5923C194.749 47.623 208.429 47.7766 222.122 48.0418C208.591 50.1467 195.054 52.1372 181.509 54.0104L161.188 56.7881C157.807 57.3353 154.396 57.4385 150.987 57.6033L140.778 58.2733L59.1191 63.7924L63.4741 58.371L93.7442 258.612L87.6109 254.823L166.244 229.28C169.53 228.247 172.776 227.088 176.037 225.977C179.289 224.841 182.664 224.079 186.003 223.205L206.067 218.065C219.461 214.696 232.867 211.368 246.337 208.233Z" fill="white"/>
</g>
<path d="M102.15 91.6476L96.3432 53.2371C94.5984 41.6991 97.485 30.3343 104.47 21.239C111.46 12.1354 121.708 6.40688 133.324 5.11155C157.112 2.45946 179.387 19.5473 182.966 43.2038L188.773 81.6144L179.426 83.0298L173.619 44.6164C170.791 25.915 153.207 12.3978 134.371 14.5027C125.335 15.5133 117.376 19.9493 111.965 26.9954C106.561 34.0332 104.33 42.8521 105.687 51.8217L111.496 90.235L102.15 91.6476Z" fill="white"/>
<path d="M171.894 83.683C172.907 90.3858 179.191 95.207 185.933 94.456C192.672 93.7051 197.315 87.6611 196.304 80.9611C195.291 74.2583 189.004 69.4371 182.265 70.1881C175.523 70.939 170.881 76.983 171.894 83.683Z" fill="white"/>
<path d="M94.618 92.3009C95.6313 99.0037 101.915 103.825 108.657 103.074C115.396 102.323 120.042 96.2818 119.028 89.579C118.015 82.879 111.728 78.055 104.989 78.8088C98.2471 79.5597 93.6046 85.6009 94.618 92.3009Z" fill="white"/>
<mask id="mask1_1_2" style="mask-type:luminance" maskUnits="userSpaceOnUse" x="21" y="57" width="57" height="208">
<path d="M21.5377 57.1733H77.8987V264.427H21.5377V57.1733Z" fill="white"/>
</mask>
<g mask="url(#mask1_1_2)">
<path d="M45.4735 57.7038C45.8894 61.8159 46.2189 65.9196 46.4869 70.0178C46.8051 74.1215 46.9866 78.2113 47.1959 82.3039C47.2685 84.3474 47.4807 86.4049 47.436 88.4372C47.3969 89.4506 47.1876 90.45 47.0647 91.4578C46.9279 92.4628 46.8442 93.4734 46.7465 94.4812L45.6047 106.594L41.0347 155.044L31.8892 251.937L24.8431 247.389C25.6303 246.954 26.1551 246.705 26.7972 246.404C27.4142 246.116 28.0256 245.851 28.6425 245.6C29.8709 245.089 31.1159 244.642 32.375 244.243C34.8986 243.464 37.4614 242.797 40.0911 242.325C42.7404 241.951 45.4623 242.183 48.1116 242.495C50.7693 242.847 53.3851 243.461 55.8892 244.327C60.9142 246.058 65.3864 248.964 69.0017 252.478C72.6308 255.996 75.4504 260.1 77.6307 264.404C74.3728 260.831 70.7074 257.738 66.7711 255.373C62.8153 253.026 58.5245 251.582 54.2421 251.029C52.0925 250.77 49.9401 250.734 47.8129 250.909C45.6773 251.041 43.5975 251.568 41.5093 251.898C39.4016 252.127 37.2911 252.57 35.2504 253.246C34.2286 253.57 33.2153 253.933 32.2326 254.34C31.7413 254.539 31.2555 254.754 30.7837 254.971C30.3426 255.175 29.7899 255.451 29.5303 255.597L21.641 259.943L22.4813 251.046L31.624 154.153L36.1968 105.706L37.3386 93.5962C37.4335 92.5856 37.5396 91.5778 37.5954 90.5645C37.6624 89.5511 37.6429 88.5321 37.7936 87.5299C38.1314 85.5227 38.7232 83.5434 39.1755 81.5474C40.1498 77.5665 41.0934 73.5828 42.1709 69.6102C43.2011 65.6349 44.2926 61.6651 45.4735 57.7038Z" fill="white"/>
</g>
</svg>
