<svg xmlns="http://www.w3.org/2000/svg" xmlns:xlink="http://www.w3.org/1999/xlink" width="500" zoomAndPan="magnify" viewBox="0 0 375 374.999991" height="500" preserveAspectRatio="xMidYMid meet" version="1.0"><defs><clipPath id="5205c21769"><path d="M 0 60.703125 L 375 60.703125 L 375 314.203125 L 0 314.203125 Z M 0 60.703125 " clip-rule="nonzero"/></clipPath></defs><g clip-path="url(#5205c21769)"><path fill="#000000" d="M 374.28125 181.160156 C 373.667969 185.261719 372.578125 189.230469 371.007812 193.066406 C 369.445312 196.867188 367.472656 200.4375 365.089844 203.785156 C 362.734375 207.082031 360.070312 210.109375 357.101562 212.867188 C 354.164062 215.578125 351.039062 218.054688 347.726562 220.289062 L 345.222656 221.894531 L 344.597656 222.292969 L 343.957031 222.664062 L 342.675781 223.410156 C 340.984375 224.433594 339.207031 225.296875 337.46875 226.226562 C 333.929688 227.945312 330.347656 229.550781 326.667969 230.894531 C 319.34375 233.660156 311.816406 235.746094 304.214844 237.347656 C 311.644531 235.074219 318.929688 232.375 325.921875 229.121094 C 329.433594 227.53125 332.816406 225.679688 336.140625 223.777344 C 339.421875 221.828125 342.582031 219.691406 345.617188 217.371094 C 348.605469 215.046875 351.40625 212.519531 354.019531 209.78125 C 356.589844 207.066406 358.863281 204.121094 360.839844 200.945312 C 362.800781 197.820312 364.382812 194.515625 365.585938 191.027344 C 366.769531 187.570312 367.527344 184.023438 367.855469 180.382812 C 368.183594 176.757812 368.101562 173.144531 367.613281 169.539062 C 367.113281 165.929688 366.253906 162.40625 365.035156 158.96875 C 362.613281 152.101562 358.957031 145.65625 354.402344 139.957031 C 349.835938 134.230469 344.503906 129.335938 338.402344 125.273438 C 332.394531 121.304688 325.734375 118.40625 318.9375 117.109375 L 318.300781 116.980469 L 317.664062 116.886719 L 316.386719 116.699219 C 315.542969 116.582031 314.683594 116.53125 313.835938 116.4375 C 312.992188 116.417969 312.136719 116.355469 311.292969 116.363281 L 310.023438 116.386719 L 309.394531 116.398438 L 308.765625 116.453125 L 307.515625 116.550781 C 307.3125 116.5625 307.085938 116.59375 306.855469 116.628906 L 306.175781 116.71875 L 303.457031 117.089844 C 302.546875 117.1875 301.65625 117.390625 300.757812 117.550781 L 298.0625 118.054688 C 290.929688 119.601562 284.015625 122.015625 277.378906 125.117188 L 276.132812 125.6875 L 274.90625 126.316406 L 272.453125 127.566406 C 271.632812 127.976562 270.847656 128.464844 270.039062 128.90625 L 267.644531 130.269531 L 265.289062 131.734375 C 264.507812 132.226562 263.707031 132.683594 262.945312 133.21875 L 260.636719 134.765625 L 259.484375 135.539062 L 258.355469 136.355469 C 252.296875 140.671875 246.511719 145.472656 240.902344 150.523438 C 229.691406 160.652344 219.28125 171.875 209.117188 183.398438 C 198.953125 194.921875 189.078125 206.820312 179.210938 218.765625 L 164.40625 236.71875 L 160.679688 241.226562 C 159.375 242.761719 158.089844 244.324219 156.734375 245.816406 C 154.078125 248.859375 151.289062 251.792969 148.441406 254.667969 C 137 266.117188 123.980469 276.230469 109.390625 283.90625 C 105.746094 285.820312 102.011719 287.597656 98.179688 289.175781 C 94.328125 290.757812 90.40625 292.140625 86.414062 293.320312 C 78.402344 295.667969 70.042969 297.191406 61.480469 297.445312 C 52.917969 297.703125 44.164062 296.683594 35.71875 293.828125 C 31.515625 292.359375 27.394531 290.460938 23.550781 288.003906 C 19.707031 285.546875 16.128906 282.585938 13.058594 279.125 C 9.957031 275.664062 7.40625 271.835938 5.402344 267.640625 C 3.402344 263.503906 2.046875 259.125 1.175781 254.726562 C 1.054688 254.179688 0.976562 253.628906 0.886719 253.078125 L 0.628906 251.421875 C 0.503906 250.328125 0.363281 249.207031 0.277344 248.128906 C 0.125 246 0.0117188 243.863281 0.0234375 241.714844 C 0.00390625 237.378906 0.371094 233.078125 1.121094 228.808594 C 2.585938 220.242188 5.796875 211.921875 10.339844 204.554688 C 14.882812 197.1875 20.734375 190.789062 27.1875 185.417969 C 33.644531 180.027344 40.710938 175.613281 48.015625 171.910156 C 55.320312 168.207031 62.917969 165.253906 70.617188 162.847656 C 84.109375 158.632812 97.929688 156.035156 111.808594 154.664062 C 111.789062 154.445312 111.773438 154.226562 111.757812 154.019531 L 111.28125 147.527344 L 110.804688 141.019531 L 110.746094 140.207031 C 110.726562 139.941406 110.710938 139.671875 110.695312 139.363281 L 110.613281 137.613281 L 110.535156 135.863281 L 110.535156 134.109375 C 110.53125 129.457031 110.964844 124.847656 111.835938 120.273438 C 112.710938 115.703125 114.007812 111.257812 115.730469 106.933594 C 117.453125 102.609375 119.566406 98.488281 122.074219 94.566406 C 124.582031 90.648438 127.4375 87 130.640625 83.621094 C 137.007812 76.878906 144.398438 71.550781 152.8125 67.640625 C 156.949219 65.710938 161.234375 64.195312 165.664062 63.085938 C 166.769531 62.816406 167.867188 62.535156 168.984375 62.34375 C 170.105469 62.152344 171.207031 61.886719 172.332031 61.757812 L 174.011719 61.523438 L 174.859375 61.40625 C 175.140625 61.371094 175.421875 61.351562 175.703125 61.324219 L 177.394531 61.175781 L 178.238281 61.101562 L 178.660156 61.066406 L 179.046875 61.039062 C 180.164062 60.972656 181.257812 60.867188 182.394531 60.851562 L 184.085938 60.804688 L 185.777344 60.816406 C 186.902344 60.816406 188.03125 60.886719 189.15625 60.941406 C 189.722656 60.960938 190.285156 61.03125 190.847656 61.082031 C 191.410156 61.132812 191.976562 61.175781 192.527344 61.246094 C 193.644531 61.402344 194.761719 61.515625 195.867188 61.726562 L 197.53125 62.007812 L 199.179688 62.355469 L 200 62.53125 L 202.449219 63.152344 L 204.058594 63.625 L 204.867188 63.863281 L 205.660156 64.128906 L 207.253906 64.664062 L 208.820312 65.261719 L 209.601562 65.558594 L 210.375 65.886719 L 211.910156 66.542969 L 213.425781 67.253906 L 214.179688 67.613281 L 214.921875 67.996094 L 216.402344 68.765625 L 217.851562 69.585938 C 218.339844 69.855469 218.816406 70.140625 219.285156 70.429688 L 220.695312 71.304688 C 221.613281 71.925781 222.550781 72.511719 223.441406 73.171875 C 225.257812 74.441406 226.964844 75.847656 228.644531 77.269531 C 235.304688 83.042969 240.800781 90.027344 244.976562 97.640625 C 240.121094 90.4375 234.164062 84.042969 227.296875 78.9375 C 220.429688 73.832031 212.691406 70.023438 204.53125 67.957031 L 203.765625 67.753906 L 203 67.582031 L 201.460938 67.234375 L 199.910156 66.953125 L 199.140625 66.8125 L 198.359375 66.699219 L 196.8125 66.472656 L 195.25 66.304688 C 194.210938 66.175781 193.164062 66.140625 192.125 66.0625 C 190.035156 65.976562 187.945312 65.953125 185.863281 66.0625 L 184.300781 66.140625 L 182.742188 66.28125 C 181.710938 66.351562 180.652344 66.523438 179.609375 66.644531 L 179.1875 66.699219 L 178.800781 66.753906 L 178.027344 66.871094 L 176.476562 67.097656 C 176.222656 67.140625 175.960938 67.167969 175.707031 67.21875 L 174.941406 67.371094 L 173.414062 67.679688 C 172.390625 67.855469 171.390625 68.152344 170.386719 68.394531 C 169.378906 68.640625 168.390625 68.949219 167.398438 69.253906 C 161.476562 71.089844 155.921875 73.707031 150.742188 77.113281 C 145.558594 80.515625 140.949219 84.570312 136.914062 89.277344 C 131.554688 95.5 127.519531 102.488281 124.808594 110.234375 C 122.109375 117.910156 120.917969 125.8125 121.238281 133.945312 L 121.292969 135.445312 L 121.425781 136.941406 L 121.554688 138.4375 C 121.574219 138.679688 121.601562 138.949219 121.632812 139.21875 L 121.726562 140.027344 L 123.132812 152.964844 C 123.253906 154.082031 123.355469 155.023438 123.5 156.019531 C 123.644531 157.015625 123.804688 157.992188 123.988281 158.964844 L 125.140625 165.046875 L 118.777344 165.738281 C 111.253906 166.558594 103.792969 167.75 96.394531 169.320312 C 89.042969 170.863281 81.808594 172.847656 74.703125 175.277344 C 67.683594 177.679688 60.898438 180.609375 54.339844 184.074219 C 47.878906 187.535156 41.789062 191.554688 36.425781 196.246094 C 31.066406 200.9375 26.449219 206.277344 22.921875 212.171875 C 21.167969 215.113281 19.707031 218.195312 18.539062 221.414062 C 17.9375 223.007812 17.472656 224.644531 17.023438 226.285156 C 16.625 227.941406 16.242188 229.601562 15.996094 231.292969 C 15.453125 234.699219 15.21875 238.125 15.292969 241.574219 C 15.304688 243.304688 15.433594 245.042969 15.582031 246.785156 C 15.667969 247.640625 15.78125 248.445312 15.878906 249.277344 C 16.027344 250.085938 16.132812 250.910156 16.3125 251.707031 C 16.988281 254.910156 17.980469 258 19.398438 260.832031 C 20.796875 263.671875 22.566406 266.261719 24.703125 268.601562 C 26.800781 270.9375 29.277344 272.941406 31.984375 274.65625 C 34.691406 276.371094 37.695312 277.714844 40.820312 278.777344 C 47.113281 280.859375 54.003906 281.710938 60.964844 281.445312 C 67.925781 281.179688 74.980469 279.945312 81.855469 277.910156 C 88.8125 275.828125 95.496094 273.085938 101.914062 269.6875 C 114.835938 262.90625 126.695312 253.851562 137.242188 243.410156 C 139.875 240.789062 142.453125 238.117188 144.929688 235.328125 C 146.191406 233.957031 147.390625 232.527344 148.609375 231.113281 L 152.339844 226.679688 L 167.363281 208.855469 C 172.378906 202.914062 177.453125 197 182.578125 191.113281 C 187.6875 185.21875 192.878906 179.371094 198.15625 173.570312 C 203.433594 167.769531 208.855469 162.070312 214.425781 156.472656 C 220.011719 150.894531 225.773438 145.4375 231.8125 140.226562 C 237.878906 134.949219 244.246094 130.058594 250.90625 125.5625 L 252.164062 124.714844 L 256.019531 122.277344 C 256.863281 121.722656 257.765625 121.238281 258.640625 120.71875 L 261.277344 119.1875 C 262.171875 118.699219 263.082031 118.230469 263.980469 117.75 C 264.878906 117.269531 265.769531 116.777344 266.699219 116.34375 L 269.472656 115.023438 L 270.859375 114.367188 L 272.273438 113.761719 C 279.855469 110.472656 287.710938 108.089844 295.839844 106.601562 L 298.890625 106.136719 C 299.90625 105.996094 300.917969 105.804688 301.945312 105.722656 L 305.007812 105.417969 L 305.777344 105.339844 C 306.027344 105.316406 306.28125 105.289062 306.566406 105.28125 L 308.21875 105.203125 L 309.046875 105.167969 L 309.871094 105.175781 L 311.515625 105.203125 C 312.613281 105.234375 313.699219 105.34375 314.789062 105.421875 C 315.867188 105.5625 316.953125 105.679688 318.015625 105.867188 L 319.613281 106.167969 L 320.40625 106.320312 L 321.191406 106.511719 C 329.585938 108.484375 337.273438 112.285156 344.011719 117.144531 C 350.761719 122.03125 356.570312 127.855469 361.441406 134.613281 C 366.25 141.277344 370.066406 148.695312 372.378906 156.621094 C 373.550781 160.59375 374.316406 164.648438 374.664062 168.777344 C 375.007812 172.917969 374.882812 177.046875 374.28125 181.160156 Z M 251.671875 246.855469 C 243.105469 210.777344 206.703125 216.242188 206.703125 216.242188 C 217.972656 231.90625 213.359375 233.484375 221.71875 243.417969 C 230.082031 253.355469 249.308594 252.304688 249.308594 252.304688 C 243.8125 239.476562 230.535156 232.730469 230.535156 232.730469 C 242.320312 234.578125 251.671875 246.855469 251.671875 246.855469 Z M 277.285156 194.800781 C 265.867188 210.359375 262.941406 206.457031 256.074219 217.46875 C 249.210938 228.484375 256.148438 246.445312 256.148438 246.445312 C 266.652344 237.25 268.96875 222.550781 268.96875 222.550781 C 270.851562 234.328125 262.066406 247.007812 262.066406 247.007812 C 293.730469 227.726562 277.28125 194.800781 277.28125 194.800781 Z M 263.828125 251.140625 C 275.820312 258.285156 290.523438 255.941406 290.523438 255.941406 C 279.898438 261.371094 265.117188 256.925781 265.117188 256.925781 C 293.261719 281.082031 319.492188 255.269531 319.492188 255.269531 C 301.160156 249.214844 303.96875 245.230469 291.367188 242.109375 C 278.765625 238.988281 263.828125 251.140625 263.828125 251.140625 Z M 261.738281 259.894531 C 258.640625 273.5 265.421875 286.753906 265.421875 286.753906 C 256.96875 278.332031 256.625 262.90625 256.625 262.90625 C 242.339844 297.125 275.003906 314.09375 275.003906 314.09375 C 275.09375 294.804688 279.757812 296.234375 278.832031 283.289062 C 277.910156 270.34375 261.734375 259.894531 261.734375 259.894531 Z M 248.316406 256.679688 C 211.34375 253.671875 205.292969 289.972656 205.292969 289.972656 C 223.683594 284.09375 223.746094 288.972656 235.785156 284.09375 C 247.824219 279.214844 252.761719 260.609375 252.761719 260.609375 C 238.859375 261.875 228.34375 272.410156 228.34375 272.410156 C 233.746094 261.773438 248.3125 256.679688 248.3125 256.679688 Z M 248.316406 256.679688 " fill-opacity="1" fill-rule="nonzero"/></g></svg>